<?xml version="1.0" encoding="utf-8"?>
<!-- Generator: Adobe Illustrator 21.1.0, SVG Export Plug-In . SVG Version: 6.00 Build 0)  -->
<svg version="1.1" id="Layer_1" xmlns="http://www.w3.org/2000/svg" xmlns:xlink="http://www.w3.org/1999/xlink" x="0px" y="0px"
  viewBox="0 0 512 512" style="enable-background:new 0 0 512 512;" xml:space="preserve">
<style type="text/css">
  .st0{stroke:#000000;stroke-width:6;stroke-miterlimit:10;}
  .st1{stroke:#000000;stroke-width:5;stroke-miterlimit:10;}
</style>
<g>
  <g>
    <g>
      <path class="st0" d="M438,75C389.7,26.6,325.4,0,257,0S124.3,26.6,76,75C27.6,123.3,1,187.6,1,256s26.6,132.7,75,181
        c48.4,48.4,112.6,75,181,75s132.7-26.6,181-75c48.4-48.4,75-112.6,75-181S486.4,123.3,438,75z M427.3,426.3
        c-45.5,45.5-105.9,70.5-170.3,70.5s-124.8-25-170.3-70.5C41.3,380.8,16.2,320.3,16.2,256s25-124.8,70.5-170.3
        C132.2,40.3,192.7,15.2,257,15.2s124.8,25,170.3,70.5c45.5,45.5,70.5,105.9,70.5,170.3S472.7,380.8,427.3,426.3z"/>
      <path class="st0" d="M451.8,173l-13.8,6.4c13,27.8,19.6,57.8,19.6,88.9h15.2C472.8,234.9,465.8,202.9,451.8,173z"/>
      <path class="st0" d="M409.5,107.1C366.9,64.5,310.2,41,250,41v15.2c56.2,0,109,21.9,148.8,61.6c12.9,12.9,24,27.3,33.1,42.8
        l13.1-7.7C435.2,136.3,423.3,120.9,409.5,107.1z"/>
    </g>
    <g>
      <g>
        <path class="st1" d="M340.6,309.2c0,0-3.4,0-8.7,0c-15,0-43,2.8-61.2,21c-2.4,2.4-4.5,5-6.4,7.8v-41.4h0.9c15,0,43-2.7,61.2-21
          c25-25,20.8-68.1,20.7-69.9c-0.4-3.4-3.1-6.1-6.5-6.5c0,0-3.4,0-8.7,0c-15,0-43,2.8-61.2,21c-2.4,2.4-4.5,5-6.4,7.8v-19
          c8.2-7.3,32.1-31.8,32.1-61.7c0-35.3-33.4-62.9-34.8-64c-2.7-2.2-6.5-2.2-9.2,0c-1.5,1.2-34.8,28.8-34.8,64
          c0,29.9,24,54.3,32.1,61.7v18.6c-1.9-2.8-4-5.4-6.4-7.9c-18.3-18.3-46.2-21-61.2-21c-5.3,0-8.7,0-8.7,0
          c-3.4,0.4-6.1,3.1-6.5,6.5c0,1.8-4.3,44.9,20.7,69.9c18.3,18.3,46.2,21,61.2,21h0.9v41c-1.9-2.7-4.1-5.1-6.5-7.4
          c-18.3-18.3-46.2-21-61.2-21c-5.3,0-8.7,0-8.7,0c-3.4,0.4-6.1,3.1-6.5,6.5c0,1.8-4.3,44.9,20.7,69.9c18.3,18.3,46.2,21,61.2,21
          h0.9v59.6c0,4,3.3,7.3,7.3,7.3s7.3-3.3,7.3-7.3v-59.1h0.8c15,0,43-2.7,61.2-21c25-25,20.8-68.1,20.7-69.9
          C346.7,312.3,344,309.6,340.6,309.2z M198,265.4c-15.1-15.1-16.8-40.3-16.8-51.9h0.9c10.3,0,35.8,1.6,51,16.8
          s16.8,40.3,16.8,51.9C240,282.4,213.6,281,198,265.4z M249.9,392c-9.9,0.2-36.3-1.2-51.9-16.8c-15.1-15.1-16.8-40.3-16.8-51.9
          c10,0,36.4,1.2,51.9,16.8S250,380.5,249.9,392z M257.3,196L257.3,196c-8.4-8.2-24.9-27.2-24.9-48.6s16.6-40.3,24.8-48.5
          c8.3,8.2,24.8,27.2,24.8,48.5S265.6,187.8,257.3,196z M281.3,230.2l-0.4,0.1c15.1-15.1,40.7-16.8,51-16.8h0.9
          c0,11.6-1.5,36.4-16.8,51.9s-41.9,17-51.9,16.8C264.4,270.3,266.1,245.4,281.3,230.2z M316.4,375.3
          c-15.2,15.5-40.6,16.8-51,16.8h-0.9c0-11.7,1.7-36.8,16.8-51.9l-0.1-0.1c15.1-15.1,40.7-16.8,51-16.8h0.9
          C333.1,334.9,331.6,359.8,316.4,375.3z"/>
      </g>
    </g>
  </g>
</g>
</svg>
