<svg xmlns="http://www.w3.org/2000/svg" xmlns:xlink="http://www.w3.org/1999/xlink" width="33" height="32" viewBox="0 0 33 32">
  <defs>
    <style>
      .cls-1 {
        fill-rule: evenodd;
        filter: url(#filter);
      }
    </style>
    <filter id="filter" x="20" y="349" width="33" height="32" filterUnits="userSpaceOnUse">
      <feFlood result="flood" flood-color="#f50049"/>
      <feComposite result="composite" operator="in" in2="SourceGraphic"/>
      <feBlend result="blend" in2="SourceGraphic"/>
    </filter>
  </defs>
  <path id="иконка_доставка" data-name="иконка доставка" class="cls-1" d="M51.239,356.211H46.662a4.387,4.387,0,0,0,1.2-3.016s0-.178,0-0.228a4.05,4.05,0,0,0-2.136-3.423,4.31,4.31,0,0,0-4.187,0L39.459,350.7a7.182,7.182,0,0,0-2.959,3.085,7.181,7.181,0,0,0-2.959-3.085l-2.082-1.151a4.311,4.311,0,0,0-4.187,0,4.05,4.05,0,0,0-2.136,3.423c0,0.05,0,.228,0,0.228a4.388,4.388,0,0,0,1.2,3.016H21.761A1.745,1.745,0,0,0,20,357.936v4.094a1.745,1.745,0,0,0,1.761,1.725h0.806v15.52A1.745,1.745,0,0,0,24.327,381H48.673a1.745,1.745,0,0,0,1.761-1.725v-15.52h0.806A1.745,1.745,0,0,0,53,362.03v-4.094A1.745,1.745,0,0,0,51.239,356.211Zm-11.06-4.264,2.082-1.151a2.831,2.831,0,0,1,2.748,0,2.627,2.627,0,0,1,1.388,2.218c0,0.035,0,.18,0,0.18a3.051,3.051,0,0,1-3.078,3.016H37.275A5.686,5.686,0,0,1,40.18,351.947ZM26.6,353.015A2.628,2.628,0,0,1,27.99,350.8a2.834,2.834,0,0,1,2.748,0l2.082,1.151a5.686,5.686,0,0,1,2.9,4.264H29.678A3.051,3.051,0,0,1,26.6,353.2S26.6,353.05,26.6,353.015Zm6.6,12.926H30.181a0.719,0.719,0,1,0,0,1.437H33.2v12.185H24.327a0.291,0.291,0,0,1-.294-0.288v-15.52H33.2v2.186h0Zm0-3.623H21.761a0.291,0.291,0,0,1-.294-0.288v-4.094a0.291,0.291,0,0,1,.294-0.288H33.2v4.67Zm5.133,17.245H34.667V357.648h3.666v21.915Zm10.633-.288a0.291,0.291,0,0,1-.294.288H39.8V367.378h2.794a0.719,0.719,0,1,0,0-1.437H39.8v-2.186h9.167v15.52h0Zm2.567-17.245a0.291,0.291,0,0,1-.294.288H39.8v-4.67H51.24a0.291,0.291,0,0,1,.294.288v4.094h0Zm-5.456,5.348h0.073a0.719,0.719,0,1,0,0-1.437H46.078A0.719,0.719,0,1,0,46.078,367.378Zm-19.453,0H26.7a0.719,0.719,0,1,0,0-1.437H26.624A0.719,0.719,0,1,0,26.624,367.378Z" transform="translate(-20 -349)"/>
</svg>
