<?xml version="1.0" ?><!DOCTYPE svg  PUBLIC '-//W3C//DTD SVG 1.1//EN'  'http://www.w3.org/Graphics/SVG/1.1/DTD/svg11.dtd'><svg enable-background="new 0 0 64 64" id="Layer_1" version="1.1" viewBox="0 0 64 64" xml:space="preserve" xmlns="http://www.w3.org/2000/svg" xmlns:xlink="http://www.w3.org/1999/xlink"><g><path d="M63,56.7h-5V35.4c0-3.2-2.1-6.7-5.4-6.7H33.7l4.4-4.3c0,0,0.1-0.1,0.1-0.1c1.2-1.7,1.5-4.6-0.3-6.4    c-0.6-0.6-1.4-0.9-2.3-0.9c-1.1,0-2.4,0.5-3.6,1.4c-1.2-0.9-2.4-1.4-3.5-1.4c-0.9,0-1.7,0.3-2.3,0.9c-1.8,1.8-1.9,4.7-0.1,6.6    l4.4,4.3H12.3C9.1,28.7,6,32,6,35.4v21.3H1c-0.6,0-1,0.5-1,1c0,3.3,2.7,6,6,6H58c3.3,0,6-2.7,6-6C64,57.2,63.6,56.7,63,56.7z     M27.5,19.2c0.2-0.2,0.5-0.4,0.9-0.4c0.8,0,1.9,0.6,2.9,1.4c0.4,0.4,1,0.4,1.4,0c0.9-0.9,2.1-1.4,2.9-1.4c0.4,0,0.7,0.1,0.9,0.4    c1,1,0.9,2.7,0.2,3.8l-4.6,4.5L27.5,23C26.5,21.9,26.5,20.2,27.5,19.2z M8,48.7h48v2H8V48.7z M8,47.7v-5.9c1.1,1,2.5,1.6,4,1.6    c2.1,0,3.9-1.1,5-2.8c1.1,1.7,2.9,2.8,5,2.8s3.9-1.1,5-2.8c1.1,1.7,2.9,2.8,5,2.8s3.9-1.1,5-2.8c1.1,1.7,2.9,2.8,5,2.8    s3.9-1.1,5-2.8c1.1,1.7,2.9,2.8,5,2.8c1.5,0,2.9-0.6,4-1.6v5.9H8z M8,35.4c0-2.3,2.3-4.7,4.3-4.7h40.2c2,0,3.4,2.4,3.4,4.7v1.7    c0,2.3-1.8,4.2-4,4.2s-4-1.9-4-4.2c0-0.6-0.4-1-1-1s-1,0.4-1,1c0,2.3-1.8,4.2-4,4.2s-4-1.9-4-4.2c0-0.6-0.4-1-1-1s-1,0.4-1,1    c0,2.3-1.8,4.2-4,4.2s-4-1.9-4-4.2c0-0.6-0.4-1-1-1s-1,0.4-1,1c0,2.3-1.8,4.2-4,4.2s-4-1.9-4-4.2c0-0.6-0.4-1-1-1s-1,0.4-1,1    c0,2.3-1.8,4.2-4,4.2s-4-1.9-4-4.2V35.4z M8,51.7h48v5H8V51.7z M58,61.7H6c-1.8,0-3.4-1-3.8-3h59.7C61.4,60.7,59.9,61.7,58,61.7z" fill="#4D4D4D"/></g></svg>